<svg id="Layer_1" data-name="Layer 1" xmlns="http://www.w3.org/2000/svg" viewBox="0 0 1000 768"><defs><style>.cls-1{fill:#878586;}</style></defs><title>Artboard 1</title><path class="cls-1" d="M915.87,382a328,328,0,0,1-6.32,55.71l-1.48,6.88-.75,3.44-.36,1.67s0,.07,0,.1l-.45,1.65-3.7,13.58c-1.41,4.48-2.89,8.93-4.35,13.4-.69,2.24-1.56,4.43-2.4,6.62l-2.51,6.58a321.84,321.84,0,0,1-58.87,95.51,334.75,334.75,0,0,1-40.95,38.64l-5.57,4.31-2.79,2.15-2.88,2-5.76,4.05-2.89,2-1.44,1-1.49.94L759,649.83c-4.09,2.33-8.16,4.66-12.27,6.94a321,321,0,0,1-106.33,35c-2.3.41-4.63.65-7,.9l-7,.75-3.48.36-1.74.19-1.75.1-7,.41-7,.37c-2.33.1-4.66,0-7,.07H588.08c-1.16,0-2.32-.1-3.48-.14l-13.92-.7q-6.95-.66-13.87-1.41c-2.31-.2-4.61-.58-6.91-.94L543,690.68l-3.44-.54-1.71-.28-1.71-.35-6.82-1.41-6.8-1.42c-2.26-.53-4.5-1.16-6.74-1.74l-6.72-1.78c-1.11-.31-2.24-.57-3.34-.93l-3.31-1.05-6.62-2.11c-2.19-.73-4.42-1.35-6.57-2.2l-13-4.88a316.32,316.32,0,0,1-92.6-58.37,308.36,308.36,0,0,1-36.66-40,296,296,0,0,1-59.76-146.37l-1.23-13c-.24-4.35-.37-8.7-.55-13v0C285,387,310,385,312.93,400.62a202.49,202.49,0,0,0,5.22,20.47,295.53,295.53,0,0,0,16.78,43.5,278.51,278.51,0,0,0,52.24,74.54,273.5,273.5,0,0,0,112.27,69.48A269.73,269.73,0,0,0,542,618.22l5.38.77,1.35.19,1.35.13,2.71.24,5.41.49c1.8.17,3.59.37,5.41.4,3.6.13,7.19.28,10.79.47h.1l10.8-.06c.91,0,1.81,0,2.71,0l2.71-.16,5.41-.3c1.8-.12,3.61-.15,5.4-.34l5.37-.57,5.38-.53,1.29-.13.1,0,1.28-.2,2.67-.41,5.32-.81c1.78-.26,3.56-.51,5.31-.91a250.91,250.91,0,0,0,41.35-11.35,261.45,261.45,0,0,0,38.84-17.88c3.06-1.84,6.14-3.62,9.22-5.42l9-5.85,1.12-.73,1.09-.78,2.16-1.58,4.33-3.13,2.13-1.53.08-.06,2-1.64,4.18-3.34a258.47,258.47,0,0,0,30.93-29.44l3.51-4,1.76-2c.59-.66,1.17-1.34,1.71-2l6.63-8.38,6.21-8.69c1.08-1.42,2-3,2.95-4.46l2.92-4.47a261.13,261.13,0,0,0,19.75-37.85l2-4.94c.67-1.65,1.39-3.28,1.94-5l3.56-10.09,3.07-10.25.37-1.23,0-.1.31-1.25.65-2.6,1.31-5.2a274.94,274.94,0,0,0,6.45-42.46l.55-10.79c0-3.6,0-7.21,0-10.82l0-2.7-.12-2.7-.25-5.4c-.1-1.8-.13-3.61-.27-5.41l-.53-5.38a257.71,257.71,0,0,0-7.55-42.68,270.35,270.35,0,0,0-35.91-79.6A281.47,281.47,0,0,0,735,148.09a285.32,285.32,0,0,0-80.16-43.17,293.56,293.56,0,0,0-45.22-11.45c-3.87-.62-7.75-1.4-11.67-1.76s-7.84-1-11.78-1.36c-7.89-.72-15.83-1.08-23.82-1.19q-9.17-.1-18.38.36C528,91,527,73,544,70.43q8.12-2,16.39-3.53c8.47-1.51,17-2.78,25.67-3.52s17.34-1.27,26.06-1.15a295.05,295.05,0,0,1,52.48,4.59,303.39,303.39,0,0,1,99.86,37.58,312.86,312.86,0,0,1,43.92,31.89,311.06,311.06,0,0,1,91,135.85l4.17,13.29c1.22,4.47,2.37,9,3.54,13.48.62,2.24,1.08,4.52,1.55,6.8l1.4,6.83.69,3.43.34,1.71.27,1.72,1,6.91A315.47,315.47,0,0,1,915.87,382Z"/></svg>